<svg width="300" height="300" viewBox="0 0 300 300" fill="none" xmlns="http://www.w3.org/2000/svg">
<rect width="300" height="300" fill="url(#paint0_linear_1_65)"/>
<g filter="url(#filter0_i_1_65)">
<path d="M146.242 96.0844C131.004 97.5558 117.8 106.166 110.408 119.427C107.629 124.386 105.631 130.725 105.014 136.411C104.742 138.863 104.742 143.949 105.014 146.402C106.158 156.919 111.044 166.801 118.799 174.249C132.947 187.8 154.034 190.761 171.451 181.642C183.093 175.539 191.774 164.24 194.626 151.47C196.079 144.949 196.079 137.864 194.626 131.343C190.921 114.813 178.008 101.57 161.444 97.3378C156.994 96.1934 150.565 95.6666 146.242 96.0844ZM154.687 102.715C163.732 103.768 171.832 107.783 178.207 114.358C184.019 120.353 187.652 127.728 188.85 135.975C189.286 138.9 189.268 144.113 188.85 146.947C187.597 155.175 184.001 162.478 178.298 168.363C176.028 170.707 174.248 172.196 171.669 173.922C163.205 179.589 152.453 181.642 142.355 179.553C134.691 177.973 127.807 174.158 122.25 168.454C116.511 162.532 112.914 155.248 111.625 146.856C111.207 144.149 111.207 138.682 111.625 135.957C112.987 127.11 116.91 119.499 123.303 113.323C129.17 107.656 137.306 103.714 144.989 102.824C145.933 102.715 146.95 102.587 147.241 102.551C148.712 102.388 152.581 102.479 154.687 102.715Z" fill="white"/>
<path d="M134.073 118.228C129.388 119.263 125.065 122.242 122.831 126.002C119.071 132.342 119.834 140.916 124.811 147.873C127.335 151.433 130.132 154.158 136.071 158.899C138.015 160.462 140.394 162.351 141.338 163.095C145.098 166.129 146.969 168.182 148.512 171.015C148.894 171.706 149.439 172.723 149.729 173.25L150.274 174.212L151.654 171.706C152.399 170.325 153.362 168.745 153.797 168.182C154.887 166.765 156.903 164.912 160.499 162.06C168.273 155.884 170.507 153.958 172.668 151.579C176.682 147.146 178.988 142.86 179.769 138.318C180.169 136.084 180.042 132.524 179.479 130.416C177.953 124.531 173.431 120.062 167.292 118.391C165.984 118.028 165.349 117.973 162.77 117.973C159.519 117.992 158.538 118.155 156.195 119.154C154.451 119.899 153.053 120.843 151.564 122.297L150.238 123.568L148.821 122.206C146.823 120.298 144.644 119.1 141.792 118.318C140.067 117.864 135.98 117.81 134.073 118.228ZM140.521 123.823C143.263 124.495 145.57 126.275 146.805 128.691C147.168 129.381 148.058 131.779 148.803 133.995C149.548 136.211 150.183 138.046 150.238 138.046C150.292 138.046 150.928 136.229 151.673 133.995C152.417 131.779 153.216 129.545 153.452 129.054C154.996 125.948 157.775 124.022 161.444 123.514C166.111 122.878 171.215 125.494 173.176 129.508C174.121 131.434 174.393 132.687 174.393 135.067C174.393 137.592 173.994 139.299 172.777 141.77C170.779 145.893 167.419 149.399 159.228 155.938C156.231 158.318 152.998 161.043 152.036 161.969L150.292 163.659L148.676 162.096C147.786 161.243 145.388 159.226 143.354 157.61C137.197 152.741 135.363 151.161 133.056 148.872C130.532 146.347 129.042 144.422 127.862 142.115C126.463 139.408 126.173 138.209 126.173 135.139C126.173 131.924 126.518 130.616 127.916 128.527C130.623 124.476 135.617 122.605 140.521 123.823Z" fill="white"/>
<path d="M125.719 96.5748C125.465 96.6112 123.721 96.9018 121.814 97.1925C92.4458 101.897 66.8372 113.614 48.3481 130.816C45.3332 133.613 42.9903 136.138 39.3942 140.425L38.5587 141.424L40.9379 144.24C59.2091 165.675 88.9042 180.661 123.576 185.911C125.247 186.165 126.79 186.365 127.026 186.365C127.299 186.365 126.845 186.038 125.719 185.402C122.504 183.622 119.544 181.533 116.892 179.172L115.385 177.827L112.969 177.282C100.964 174.558 90.5024 170.888 80.041 165.748C71.2142 161.406 63.6406 156.538 56.6664 150.689C54.1055 148.545 49.8556 144.494 48.1665 142.587L47.0767 141.352L49.4741 138.881C64.6214 123.114 87.0879 111.361 113.369 105.439C115.239 105.022 115.53 104.913 116.184 104.295C118.854 101.77 122.54 99.118 126.173 97.138C127.372 96.484 127.408 96.4477 126.809 96.484C126.463 96.484 125.973 96.5385 125.719 96.5748Z" fill="white"/>
<path d="M174.557 97.2651C177.844 99.0998 180.859 101.225 183.602 103.659L185.091 104.985L188.324 105.73C199.929 108.418 210.3 112.088 220.434 117.065C232.185 122.842 241.448 129.363 249.821 137.719L253.435 141.315L252.527 142.369C251.074 144.022 246.606 148.327 244.136 150.416C229.37 162.95 209.773 172.233 187.488 177.282L185.073 177.827L183.965 178.845C181.567 181.061 178.117 183.549 174.975 185.293C173.758 185.965 173.195 186.365 173.449 186.365C174.085 186.365 179.57 185.511 182.911 184.894C214.859 178.99 242.737 164.185 259.701 144.058L261.917 141.424L261.553 140.97C259.973 138.936 256.831 135.466 254.307 132.96C237.616 116.266 213.696 104.222 186.017 98.5367C182.494 97.8101 176.028 96.7202 174.212 96.5385L173.031 96.4114L174.557 97.2651Z" fill="white"/>
<ellipse cx="150.486" cy="141.655" rx="34.0268" ry="32.785" fill="white"/>
<rect x="158.682" y="182.203" width="9.93485" height="53.2603" transform="rotate(-19.3579 158.682 182.203)" fill="white"/>
</g>
<defs>
<filter id="filter0_i_1_65" x="34" y="89" width="232.475" height="147.453" filterUnits="userSpaceOnUse" color-interpolation-filters="sRGB">
<feFlood flood-opacity="0" result="BackgroundImageFix"/>
<feBlend mode="normal" in="SourceGraphic" in2="BackgroundImageFix" result="shape"/>
<feColorMatrix in="SourceAlpha" type="matrix" values="0 0 0 0 0 0 0 0 0 0 0 0 0 0 0 0 0 0 127 0" result="hardAlpha"/>
<feOffset dy="4"/>
<feGaussianBlur stdDeviation="2"/>
<feComposite in2="hardAlpha" operator="arithmetic" k2="-1" k3="1"/>
<feColorMatrix type="matrix" values="0 0 0 0 0 0 0 0 0 0 0 0 0 0 0 0 0 0 0.25 0"/>
<feBlend mode="normal" in2="shape" result="effect1_innerShadow_1_65"/>
</filter>
<linearGradient id="paint0_linear_1_65" x1="150" y1="0" x2="150" y2="300" gradientUnits="userSpaceOnUse">
<stop stop-color="#4A67A0"/>
<stop offset="1" stop-color="#1D4289"/>
</linearGradient>
</defs>
</svg>
